<?xml version="1.0" encoding="utf-8"?>
<svg version="1.1" id="Layer_1" x="0px" y="0px" viewBox="0 0 735 852" style="enable-background:new 0 0 735 852;" xmlns="http://www.w3.org/2000/svg">
  <style type="text/css">
	.st0{fill:#428BCA;}
	.st1{opacity:0.25;fill:url(#SVGID_1_);enable-background:new    ;}
	.st2{fill:#3674A8;}
	.st3{fill:#E6B35A;}
	.st4{fill:#FFFFFF;}
	.st5{opacity:0.9;fill:#FFFFFF;enable-background:new    ;}
</style>
  <title>shiny</title>
  <path class="st0" d="M715.1,226.8L366.9,16l-347,210.8v401.5L367.5,829l347.6-200.7V226.8z" style="fill: rgb(106, 101, 119);"/>
  <linearGradient id="SVGID_1_" gradientUnits="userSpaceOnUse" x1="366.1405" y1="-182.39" x2="367.4405" y2="281.13" gradientTransform="matrix(1 0 0 1 0 60)">
    <stop offset="0" style="stop-color:#FFFFFF;stop-opacity:0.83"/>
    <stop offset="0.56" style="stop-color:#FFFFFF;stop-opacity:0.37"/>
    <stop offset="1" style="stop-color:#FFFFFF;stop-opacity:0"/>
  </linearGradient>
  <path class="st1" d="M366.9,340.4c128.2,0,238.6-57,287.8-138.8L367.5,35.8l0,0L79.4,202.2C128.8,283.7,238.9,340.4,366.9,340.4z" style="paint-order: fill;"/>
  <path class="st2" d="M734.9,637.4V213.1l-29.3-16.9L427.8,35.8L367.5,1l-60.3,34.8L29.4,196.2L0.1,213.1v424.2l29.3,16.9 l281.3,162.4l56.9,32.8l56.9-32.8l281.3-162.4L734.9,637.4z M29.4,621.5V231l50-28.9L367.5,35.8l0,0l287.2,165.8l50.9,29.4v390.5 L367.5,816.7L29.4,621.5z" style="fill: rgb(57, 58, 89);"/>
  <path class="st3" d="M 373 633.9 C 373.3 633.6 373.6 633.3 373.9 633 L 373.6 633 C 373.5 633.3 373.3 633.6 373 633.9 Z"/>
  <circle style="fill:#393A59;" cx="368.886" cy="408.082" r="256"/>
  <path style="fill:#6A6577;" d="M 582.839 366.603 C 582.839 427.535 557.439 482.531 516.645 521.582 C 503.134 534.523 487.926 545.705 471.395 554.775 C 440.811 571.569 405.673 581.121 368.321 581.121 C 330.968 581.121 295.849 571.577 265.264 554.783 C 260.334 552.086 255.528 549.197 250.852 546.124 C 239.82 538.901 229.496 530.67 220.005 521.581 C 179.211 482.538 153.801 427.534 153.801 366.602 C 153.801 248.126 249.845 152.082 368.321 152.082 C 486.797 152.082 582.839 248.127 582.839 366.603 Z"/>
  <g transform="matrix(1, 0, 0, 1, 112.886009, 152.082291)">
    <path style="fill:#393A59;" d="M186.159,233.576c-11.975,2.226-22.413,10.7-26.582,23.071c-1.526,4.545-2.058,9.185-1.703,13.688 c0.115,1.609,0.355,3.197,0.69,4.765c-0.533-0.063-1.066-0.104-1.599-0.136c-0.46-0.021-0.92-0.042-1.369-0.052 c-11.588-0.303-22.747,4.232-30.845,12.288c-2.675,2.675-5.026,5.726-6.928,9.122c-1.285,2.278-2.382,4.723-3.239,7.293 c-3.877,11.536-2.487,23.573,2.884,33.489l-0.46,0.23c-4.671-10.271-13.406-18.651-24.952-22.528 c-18.422-6.186-38.118,1.076-48.431,16.488c-0.293,0.449-0.585,0.899-0.867,1.358c-3.939-4.618-9.143-8.255-15.308-10.334 c-6.363-2.132-12.915-2.32-19.007-0.888c-1.254-4.733-2.361-9.509-3.344-14.346l20.292-37.71l7.659,7.774 c9.446,9.592,23.97,12.027,36.018,6.029L59.037,262.99l6.165,1.4c10.397,2.382,21.023-2.905,25.412-12.622L93.215,246 l10.031,20.198c8.923-4.441,14.984-12.737,16.739-22.152c0.616-3.302,0.711-6.75,0.199-10.209l-1.567-10.804l4.765,0.742 L186.159,233.576z"/>
    <path style="fill:#393A59;" d="M472.886,320.262c-0.629,2.775-4.416,3.193-5.62,0.615c-3.543-7.577-9.82-13.9-18.16-17.353 c-4.432-1.834-9.025-2.681-13.538-2.636c-1.616,0.008-3.216,0.136-4.798,0.371c0.092-0.531,0.168-1.06,0.237-1.592 c0.057-0.456,0.11-0.91,0.153-1.36c1.089-11.544-2.679-22.988-10.172-31.607c-2.476-2.858-5.366-5.402-8.626-7.536 c-2.189-1.44-4.548-2.694-7.058-3.731c-11.247-4.649-23.343-4.074-33.604,0.609l-0.2-0.481 c10.563-3.955,19.516-12.106,24.168-23.356c7.429-17.961,1.525-38.105-13.153-49.44c-0.425-0.327-0.854-0.647-1.295-0.957 c4.873-3.62,8.86-8.562,11.351-14.574c3.448-8.342,3.405-17.252,0.545-25.112c-0.973-2.675,1.997-5.059,4.406-3.544l44.58,28.043 c1.706,1.074,1.886,3.493,0.356,4.807l-5.199,4.466c-9.359,8.034-13.009,20.741-9.585,32.374c0.505,1.717,2.381,2.626,4.034,1.94 l12.074-5.008c2.334-0.969,4.744,1.211,4.016,3.63l-0.002,0.007c-3.075,10.212,1.472,21.174,10.872,26.211l0,0 c2.229,1.192,2.069,4.439-0.265,5.407l-12.071,5.007c-1.657,0.688-2.33,2.662-1.469,4.237c4.169,7.62,11.288,13.059,19.507,15.177 c3.256,0.844,6.688,1.165,10.173,0.897l6.836-0.526c2.009-0.155,3.596,1.68,3.15,3.647l-0.169,0.746L472.886,320.262z"/>
    <path style="fill:#393A59;" d="M211.197,32.54c2.603,1.15,2.286,4.947-0.475,5.634c-8.116,2.023-15.527,6.968-20.518,14.49 c-2.65,3.998-4.363,8.342-5.187,12.779c-0.302,1.588-0.485,3.183-0.558,4.78c-0.503-0.192-1.008-0.368-1.517-0.538 c-0.437-0.143-0.872-0.282-1.305-0.411c-11.12-3.285-23.074-1.786-32.972,3.913c-3.28,1.882-6.332,4.229-9.052,7.018 c-1.833,1.872-3.517,3.947-5.018,6.21c-6.722,10.145-8.481,22.127-5.856,33.095l-0.51,0.103 c-1.853-11.125-8.133-21.477-18.279-28.204c-16.199-10.739-37.103-8.813-51.046,3.415c-0.402,0.355-0.799,0.714-1.188,1.087 c-2.616-5.478-6.701-10.339-12.124-13.938c-7.524-4.985-16.277-6.655-24.54-5.358c-2.812,0.441-4.582-2.932-2.632-5.005 l36.082-38.362c1.381-1.469,3.79-1.181,4.786,0.573l3.384,5.96c6.088,10.728,17.857,16.75,29.931,15.623 c1.782-0.166,3.034-1.833,2.679-3.586l-2.597-12.811c-0.502-2.476,2.099-4.423,4.334-3.243l0.007,0.004 c9.431,4.979,21.063,2.622,27.811-5.636l0,0c1.598-1.958,4.753-1.179,5.256,1.299l2.596,12.807 c0.356,1.759,2.165,2.798,3.876,2.256c8.28-2.628,14.984-8.57,18.64-16.23c1.453-3.033,2.428-6.34,2.834-9.812l0.797-6.81 c0.234-2.002,2.34-3.206,4.184-2.392l0.7,0.309L211.197,32.54z"/>
  </g>
  <path style="fill:#282942;" d="M 545.881 593.029 C 529.758 608.473 511.608 621.816 491.881 632.641 C 455.383 652.682 413.451 664.082 368.876 664.082 C 324.301 664.082 282.39 652.693 245.892 632.651 C 226.164 621.836 208.014 608.483 191.881 593.028 C 208.255 551.462 248.076 521.703 295.054 520.031 C 296.433 519.968 297.833 519.937 299.234 519.937 L 438.529 519.937 C 439.929 519.937 441.329 519.968 442.709 520.031 C 489.687 521.704 529.508 551.463 545.881 593.029 Z"/>
  <path style="fill:#D863BB;" d="M 368.876 600.719 C 368.876 600.719 546.168 472.011 539.797 460.426 C 530.28 443.113 516.148 431.302 502.19 423.288 C 478.758 409.842 455.779 407.114 455.779 407.114 L 314.652 526.893 L 368.876 600.719 Z"/>
  <path style="fill:#282942;" d="M 368.876 600.719 C 368.876 600.719 546.168 472.011 539.797 460.426 C 530.28 443.113 516.148 431.302 502.19 423.288 C 516.461 439.08 530.167 463.103 509.082 484.178 C 505.676 487.584 501.928 489.891 497.936 491.279 C 483.997 496.126 471.03 503.405 460.345 513.584 L 368.876 600.719 Z"/>
  <path style="fill:#D863BB;" d="M 368.876 600.719 C 368.876 600.719 191.584 472.011 197.955 460.426 C 207.472 443.113 221.604 431.302 235.562 423.288 C 258.994 409.842 281.973 407.114 281.973 407.114 L 368.876 600.719 Z"/>
  <g transform="matrix(1, 0, 0, 1, 112.886009, 152.082291)">
    <path style="fill:#CCCCCC;" d="M402.659,149.703l-48.834,28.801v58.586c0,13.485,10.932,24.417,24.417,24.417l0,0 c13.485,0,24.417-10.932,24.417-24.417L402.659,149.703L402.659,149.703z"/>
    <path style="fill:#CCCCCC;" d="M109.318,149.703l48.834,28.801v58.586c0,13.485-10.932,24.417-24.417,24.417l0,0 c-13.485,0-24.417-10.932-24.417-24.417V149.703z"/>
    <path style="fill:#CCCCCC;" d="M310.221,308.199v58.253c0,29.949-24.278,54.227-54.227,54.227l0,0 c-29.949,0-54.227-24.278-54.227-54.227v-58.253H310.221z"/>
  </g>
  <path style="fill:#EDEDED;" d="M 489.614 297.135 L 489.614 399.514 C 489.614 432.857 476.103 463.044 454.265 484.882 C 432.395 506.752 402.219 520.252 368.876 520.252 C 302.191 520.252 248.138 466.199 248.138 399.514 L 248.138 297.135 C 248.138 291.628 248.504 286.195 249.225 280.887 C 251.44 264.367 257.009 248.913 265.222 235.215 C 286.298 199.981 451.465 199.981 472.53 235.215 C 480.743 248.914 486.312 264.368 488.527 280.887 C 489.248 286.195 489.614 291.628 489.614 297.135 Z"/>
  <path style="fill:#CCCCCC;" d="M 283.117 399.515 L 283.117 297.137 C 283.117 236.398 327.977 186.15 386.368 177.674 C 380.656 176.844 374.819 176.397 368.875 176.397 C 302.194 176.397 248.135 230.456 248.135 297.137 L 248.135 399.515 C 248.135 466.196 302.194 520.255 368.875 520.255 C 374.818 520.255 380.655 519.807 386.369 518.978 C 327.977 510.502 283.117 460.254 283.117 399.515 Z"/>
  <g transform="matrix(1, 0, 0, 1, 112.886009, 152.082291)">
    <path style="fill:#393A59;" d="M316.094,223.664v-23.14c0-6.035-4.892-10.928-10.928-10.928l0,0 c-6.035,0-10.928,4.892-10.928,10.928v23.14c0,6.035,4.892,10.928,10.928,10.928l0,0 C311.202,234.591,316.094,229.699,316.094,223.664z"/>
    <path style="fill:#393A59;" d="M195.892,200.523v23.14c0,6.035,4.892,10.928,10.928,10.928l0,0c6.035,0,10.928-4.892,10.928-10.928 v-23.14c0-6.035-4.892-10.928-10.928-10.928l0,0C200.784,189.596,195.892,194.488,195.892,200.523z"/>
  </g>
  <g transform="matrix(1, 0, 0, 1, 112.886009, 152.082291)">
    <circle style="fill:#7F7D89;" cx="308.955" cy="204.581" r="7.14"/>
    <circle style="fill:#7F7D89;" cx="210.61" cy="204.581" r="7.14"/>
    <circle style="fill:#7F7D89;" cx="300.972" cy="221.539" r="4.105"/>
    <circle style="fill:#7F7D89;" cx="202.637" cy="221.539" r="4.105"/>
  </g>
  <g transform="matrix(1, 0, 0, 1, 112.886009, 152.082291)">
    <path style="fill:#282942;" d="M161.949,128.805c0,1.261,0.049,2.511,0.147,3.748c1.162,14.771-4.176,29.397-15.378,39.096 c-3.501,3.032-7.346,5.679-11.467,7.876v-34.471c0-22.643,6.228-43.813,17.084-61.921c6.562,7.304,11.41,16.175,13.928,25.987 C163.495,115.106,161.949,121.783,161.949,128.805z"/>
    <path style="fill:#282942;" d="M376.728,145.053v34.471c-4.121-2.197-7.965-4.844-11.467-7.876 c-11.2-9.699-16.54-24.325-15.378-39.096c0.097-1.237,0.147-2.487,0.147-3.748c0-7.022-1.546-13.699-4.315-19.686 c2.518-9.812,7.367-18.683,13.928-25.987C370.5,101.24,376.728,122.41,376.728,145.053z"/>
  </g>
  <g transform="matrix(1, 0, 0, 1, 112.886009, 152.082291)">
    <rect x="182.185" y="176.161" transform="matrix(-0.9327 -0.3606 0.3606 -0.9327 329.4594 440.9586)" style="fill:#EDEDED;" width="47.364" height="27.167"/>
    <rect x="282.448" y="176.171" transform="matrix(0.9327 -0.3606 0.3606 0.9327 -47.8298 123.1597)" style="fill:#EDEDED;" width="47.364" height="27.167"/>
  </g>
  <path style="fill:#393A59;" d="M 426 409.754 C 426 429.252 416.23 446.472 401.309 456.774 C 392.093 463.148 380.923 466.878 368.875 466.878 C 356.827 466.878 345.657 463.148 336.441 456.774 C 321.52 446.471 311.75 429.251 311.75 409.754 C 317.037 412.398 322.471 414.655 327.998 416.525 C 333.787 418.479 339.68 420.015 345.625 421.112 C 353.305 422.533 361.089 423.244 368.874 423.244 C 376.658 423.244 384.443 422.533 392.123 421.112 C 398.068 420.015 403.962 418.479 409.75 416.525 C 415.279 414.654 420.713 412.397 426 409.754 Z"/>
  <path style="fill:#E87BC2;" d="M 401.309 456.774 C 392.093 463.148 380.923 466.878 368.875 466.878 C 356.827 466.878 345.657 463.148 336.441 456.774 C 345.657 450.4 356.827 446.67 368.875 446.67 C 380.923 446.67 392.093 450.4 401.309 456.774 Z"/>
  <path style="fill:#CCCCCC;" d="M 436.192 321.986 L 301.559 321.986 L 339.324 350.306 L 343.489 350.306 C 350.767 350.306 356.667 356.205 356.667 363.484 L 356.667 383.919 C 356.667 390.644 361.928 396.412 368.651 396.535 C 375.5 396.66 381.093 391.145 381.093 384.324 L 381.093 363.484 C 381.093 356.206 386.993 350.306 394.271 350.306 L 398.428 350.306 L 436.192 321.986 Z"/>
  <g transform="matrix(1, 0, 0, 1, 112.886009, 152.082291)">
    <path style="fill:#F0F0F0;" d="M296.866,264.443c-0.627,4.807-1.714,9.352-2.905,13.333c-2.675,8.944-5.925,15.078-5.925,15.078 l-5.611-15.193l-3.187-8.631C285.184,267.933,291.077,266.397,296.866,264.443z"/>
    <path style="fill:#F0F0F0;" d="M232.741,269.03l-3.187,8.631l-5.611,15.193c0,0-3.25-6.134-5.925-15.078 c-1.191-3.981-2.278-8.526-2.905-13.333C220.902,266.397,226.795,267.933,232.741,269.03z"/>
  </g>
  <g transform="matrix(1, 0, 0, 1, 112.886009, 152.082291)">
    <path style="fill:#393A59;" d="M169.618,177.742l10.334-16.078c1.844-2.869,5.666-3.701,8.536-1.857l42.28,27.176 c5.771,3.709,2.098,12.656-4.615,11.24l-52.614-11.098C169.308,186.233,167.28,181.381,169.618,177.742z"/>
    <path style="fill:#393A59;" d="M342.361,177.742l-10.334-16.078c-1.844-2.869-5.666-3.701-8.536-1.857l-42.28,27.176 c-5.771,3.709-2.098,12.656,4.614,11.24l52.614-11.098C342.671,186.233,344.699,181.381,342.361,177.742z"/>
  </g>
  <path style="fill:#CCCCCC;" d="M 382.111 487.776 L 355.641 487.776 C 352.948 487.776 350.764 485.593 350.764 482.899 C 350.764 480.206 352.947 478.022 355.641 478.022 L 382.111 478.022 C 384.804 478.022 386.988 480.205 386.988 482.899 C 386.987 485.594 384.804 487.776 382.111 487.776 Z"/>
  <g transform="matrix(1, 0, 0, 1, 112.886009, 152.082291)">
    <path style="fill:#282942;" d="M359.643,83.132c-21.065-35.234-59.601-58.817-103.654-58.817 c-44.042,0-82.578,23.583-103.654,58.817c-8.213,13.699-13.782,29.153-15.997,45.672h25.61c0-25.966,21.055-47.02,47.02-47.02 c0.631,0,1.26,0.013,1.885,0.038c22.046,0.87,39.219,19.546,39.219,41.61v6.424c0,3.267,2.649,5.916,5.916,5.916l0,0 c3.267,0,5.916-2.649,5.916-5.916v-6.424c0-22.064,17.173-40.74,39.219-41.61c0.625-0.025,1.254-0.038,1.885-0.038 c25.966,0,47.02,21.055,47.02,47.02h25.61C373.426,112.285,367.856,96.831,359.643,83.132z"/>
    <path style="fill:#282942;" d="M255.99,448.637c0,0-177.292-128.708-170.921-140.293c9.517-17.313,23.649-29.124,37.607-37.138 c-14.271,15.792-27.977,39.815-6.892,60.89c3.406,3.406,7.154,5.713,11.146,7.101c13.939,4.847,26.906,12.126,37.591,22.305 L255.99,448.637z"/>
  </g>
  <g transform="matrix(1, 0, 0, 1, 112.886009, 152.082291)">
    <path style="fill:#E87BC2;" d="M298.436,441.095l-39.554,14.658c-1.863,0.691-3.912,0.691-5.775,0l-39.554-14.658 c-5.427-2.011-11.197,2.004-11.197,7.792v24.39c0,5.788,5.77,9.803,11.197,7.792l39.554-14.658c1.863-0.691,3.912-0.691,5.775,0 l39.554,14.658c5.427,2.011,11.197-2.004,11.197-7.792v-24.39C309.633,443.099,303.864,439.084,298.436,441.095z"/>
    <path style="fill:#E87BC2;" d="M293.961,277.776c-2.675,8.944-5.925,15.078-5.925,15.078l-5.611-15.193 c1.745-0.648,3.636-1.003,5.611-1.003C290.126,276.658,292.122,277.055,293.961,277.776z"/>
    <path style="fill:#E87BC2;" d="M229.554,277.661l-5.611,15.193c0,0-3.25-6.134-5.925-15.078c1.839-0.721,3.835-1.118,5.925-1.118 C225.917,276.658,227.809,277.013,229.554,277.661z"/>
  </g>
  <g transform="matrix(1, 0, 0, 1, 397.789375, 5.603646)"/>
  <g transform="matrix(1, 0, 0, 1, 397.789375, 5.603646)"/>
  <g transform="matrix(1, 0, 0, 1, 397.789375, 5.603646)"/>
  <g transform="matrix(1, 0, 0, 1, 397.789375, 5.603646)"/>
  <g transform="matrix(1, 0, 0, 1, 397.789375, 5.603646)"/>
  <g transform="matrix(1, 0, 0, 1, 397.789375, 5.603646)"/>
  <g transform="matrix(1, 0, 0, 1, 397.789375, 5.603646)"/>
  <g transform="matrix(1, 0, 0, 1, 397.789375, 5.603646)"/>
  <g transform="matrix(1, 0, 0, 1, 397.789375, 5.603646)"/>
  <g transform="matrix(1, 0, 0, 1, 397.789375, 5.603646)"/>
  <g transform="matrix(1, 0, 0, 1, 397.789375, 5.603646)"/>
  <g transform="matrix(1, 0, 0, 1, 397.789375, 5.603646)"/>
  <g transform="matrix(1, 0, 0, 1, 397.789375, 5.603646)"/>
  <g transform="matrix(1, 0, 0, 1, 397.789375, 5.603646)"/>
  <g transform="matrix(1, 0, 0, 1, 397.789375, 5.603646)"/>
  <text style="fill: rgb(255, 255, 255); font-family: &quot;Fira Code&quot;; font-size: 80px; white-space: pre;" x="196.057" y="715.783">dRacula</text>
</svg>